<mxfile host="app.diagrams.net" modified="2023-05-01T15:56:18.579Z" agent="Mozilla/5.0 (X11; Linux x86_64) AppleWebKit/537.36 (KHTML, like Gecko) Chrome/111.0.0.0 Safari/537.36" etag="S_R-YkHA2BOy1VzbG7X1" version="21.2.1" type="device">
  <diagram name="Page-1" id="2YBvvXClWsGukQMizWep">
    <mxGraphModel dx="1360" dy="852" grid="1" gridSize="10" guides="1" tooltips="1" connect="1" arrows="1" fold="1" page="1" pageScale="1" pageWidth="827" pageHeight="1169" math="0" shadow="0">
      <root>
        <mxCell id="0" />
        <mxCell id="1" parent="0" />
        <mxCell id="862ON3jUITD3PQ5Sk8Ls-1" value="Room" style="rounded=1;arcSize=10;whiteSpace=wrap;html=1;align=center;strokeWidth=2;fontSize=14;" parent="1" vertex="1">
          <mxGeometry x="60" y="60" width="170" height="60" as="geometry" />
        </mxCell>
        <mxCell id="qVsnzB83TJtug0X_Bccu-10" style="edgeStyle=orthogonalEdgeStyle;rounded=0;orthogonalLoop=1;jettySize=auto;html=1;exitX=0.5;exitY=0;exitDx=0;exitDy=0;entryX=0.5;entryY=1;entryDx=0;entryDy=0;startArrow=ERzeroToMany;startFill=0;endArrow=ERmandOne;endFill=0;strokeWidth=2;fontSize=14;" parent="1" source="qVsnzB83TJtug0X_Bccu-1" target="862ON3jUITD3PQ5Sk8Ls-1" edge="1">
          <mxGeometry relative="1" as="geometry" />
        </mxCell>
        <mxCell id="qVsnzB83TJtug0X_Bccu-1" value="Order" style="rounded=1;arcSize=10;whiteSpace=wrap;html=1;align=center;strokeWidth=2;fontSize=14;" parent="1" vertex="1">
          <mxGeometry x="60" y="200" width="170" height="60" as="geometry" />
        </mxCell>
        <mxCell id="qVsnzB83TJtug0X_Bccu-9" style="edgeStyle=orthogonalEdgeStyle;rounded=0;orthogonalLoop=1;jettySize=auto;html=1;exitX=0.5;exitY=0;exitDx=0;exitDy=0;entryX=0.5;entryY=1;entryDx=0;entryDy=0;startArrow=ERmandOne;startFill=0;endArrow=ERzeroToMany;endFill=0;strokeWidth=2;fontSize=14;" parent="1" source="qVsnzB83TJtug0X_Bccu-2" target="qVsnzB83TJtug0X_Bccu-1" edge="1">
          <mxGeometry relative="1" as="geometry" />
        </mxCell>
        <mxCell id="qVsnzB83TJtug0X_Bccu-2" value="Customer" style="rounded=1;arcSize=10;whiteSpace=wrap;html=1;align=center;strokeWidth=2;fontSize=14;" parent="1" vertex="1">
          <mxGeometry x="60" y="340" width="170" height="60" as="geometry" />
        </mxCell>
        <mxCell id="qVsnzB83TJtug0X_Bccu-12" style="edgeStyle=orthogonalEdgeStyle;rounded=0;orthogonalLoop=1;jettySize=auto;html=1;exitX=0;exitY=0.5;exitDx=0;exitDy=0;entryX=1;entryY=0.5;entryDx=0;entryDy=0;startArrow=ERmandOne;startFill=0;endArrow=ERmandOne;endFill=0;strokeWidth=2;fontSize=14;" parent="1" source="qVsnzB83TJtug0X_Bccu-3" target="qVsnzB83TJtug0X_Bccu-1" edge="1">
          <mxGeometry relative="1" as="geometry" />
        </mxCell>
        <mxCell id="qVsnzB83TJtug0X_Bccu-13" style="rounded=0;orthogonalLoop=1;jettySize=auto;html=1;exitX=0;exitY=0;exitDx=0;exitDy=0;entryX=1;entryY=1;entryDx=0;entryDy=0;startArrow=ERmany;startFill=0;endArrow=ERmany;endFill=0;strokeWidth=2;fontSize=14;" parent="1" source="qVsnzB83TJtug0X_Bccu-3" target="862ON3jUITD3PQ5Sk8Ls-1" edge="1">
          <mxGeometry relative="1" as="geometry" />
        </mxCell>
        <mxCell id="qVsnzB83TJtug0X_Bccu-3" value="Tariff (including historical)" style="rounded=1;arcSize=10;whiteSpace=wrap;html=1;align=center;strokeWidth=2;fontSize=14;" parent="1" vertex="1">
          <mxGeometry x="320" y="200" width="170" height="60" as="geometry" />
        </mxCell>
        <mxCell id="qVsnzB83TJtug0X_Bccu-4" value="Category" style="ellipse;whiteSpace=wrap;html=1;align=center;strokeWidth=2;fontSize=14;" parent="1" vertex="1">
          <mxGeometry x="20" y="85" width="100" height="40" as="geometry" />
        </mxCell>
        <mxCell id="qVsnzB83TJtug0X_Bccu-11" style="edgeStyle=orthogonalEdgeStyle;rounded=0;orthogonalLoop=1;jettySize=auto;html=1;exitX=0;exitY=0.5;exitDx=0;exitDy=0;startArrow=ERmandOne;startFill=0;endArrow=ERmany;endFill=0;strokeWidth=2;fontSize=14;" parent="1" source="qVsnzB83TJtug0X_Bccu-6" target="862ON3jUITD3PQ5Sk8Ls-1" edge="1">
          <mxGeometry relative="1" as="geometry" />
        </mxCell>
        <mxCell id="qVsnzB83TJtug0X_Bccu-14" style="edgeStyle=orthogonalEdgeStyle;rounded=0;orthogonalLoop=1;jettySize=auto;html=1;exitX=0.5;exitY=1;exitDx=0;exitDy=0;entryX=0.5;entryY=0;entryDx=0;entryDy=0;startArrow=ERmandOne;startFill=0;endArrow=ERmany;endFill=0;strokeWidth=2;fontSize=14;" parent="1" source="qVsnzB83TJtug0X_Bccu-6" target="qVsnzB83TJtug0X_Bccu-3" edge="1">
          <mxGeometry relative="1" as="geometry" />
        </mxCell>
        <mxCell id="qVsnzB83TJtug0X_Bccu-6" value="Hotel" style="rounded=1;arcSize=10;whiteSpace=wrap;html=1;align=center;strokeWidth=2;fontSize=14;" parent="1" vertex="1">
          <mxGeometry x="320" y="60" width="170" height="60" as="geometry" />
        </mxCell>
        <mxCell id="qVsnzB83TJtug0X_Bccu-15" value="Num. people" style="ellipse;whiteSpace=wrap;html=1;align=center;strokeWidth=2;fontSize=14;" parent="1" vertex="1">
          <mxGeometry x="20" y="54" width="100" height="40" as="geometry" />
        </mxCell>
      </root>
    </mxGraphModel>
  </diagram>
</mxfile>
